# xmcd
#
# Track frame offsets: 
#        150
#        26385
#        46464
#        65909
#        86503
#        99415
#        113710
#        128207
#        142646
#        153838
#        173169
#        189109
#        214305
#
# Disc length: 2937 seconds
#
# Revision: 1
# Processed by: cddbd v1.5.2PL0 Copyright (c) Steve Scherf et al.
# Submitted via: ExactAudioCopy v0.99pb4
#
DISCID=a50b770d
DTITLE=Sugar Ray And The Bluetones - Hands Across The Table
DYEAR=2005
DGENRE=Blues
TTITLE0=Hands Across The Table
TTITLE1=I Done Got Wise
TTITLE2=Dark Roads Calling
TTITLE3=Livin' A Lie
TTITLE4=Cloud Cover
TTITLE5=Say You Love Me (Before You Hang Up)
TTITLE6=That's My Desire
TTITLE7=(I'm Gonna Break Into) Folsom Prison
TTITLE8=I Wanna Marry You Girl
TTITLE9=I Won't Leave Home No More
TTITLE10=River Stay 'Way From My Door
TTITLE11=The Last Blues Song
TTITLE12=End Time
EXTD=
EXTT0=
EXTT1=
EXTT2=
EXTT3=
EXTT4=
EXTT5=
EXTT6=
EXTT7=
EXTT8=
EXTT9=
EXTT10=
EXTT11=
EXTT12=
PLAYORDER=
